<?xml version="1.0" standalone="no"?>
<!DOCTYPE svg PUBLIC "-//W3C//DTD SVG 20010904//EN"
 "http://www.w3.org/TR/2001/REC-SVG-20010904/DTD/svg10.dtd">
<svg version="1.0" xmlns="http://www.w3.org/2000/svg"
 width="500.000000pt" height="500.000000pt" viewBox="0 0 500.000000 500.000000"
 preserveAspectRatio="xMidYMid meet">

<g transform="translate(0.000000,500.000000) scale(0.100000,-0.100000)"
fill="#000000" stroke="none">
<path d="M0 2500 l0 -2500 1172 2 1173 3 0 536 c0 470 -2 536 -15 536 -89 1
-110 4 -110 17 0 16 21 26 56 26 l24 0 0 350 0 350 -36 0 c-28 0 -35 3 -32 18
2 13 16 18 58 22 l55 5 0 100 0 100 -65 3 c-36 1 -71 5 -79 7 -22 8 6 33 41
37 29 3 33 8 53 68 12 36 21 77 20 92 -1 15 2 25 7 22 4 -3 9 2 9 10 2 19 5
35 9 39 1 1 3 207 4 457 l1 456 -71 2 -72 3 -26 -78 c-14 -43 -26 -81 -26 -85
0 -4 17 -8 37 -10 27 -2 39 -8 41 -20 3 -16 -7 -18 -97 -18 -55 0 -102 4 -105
9 -8 13 15 29 49 33 29 3 29 3 132 323 56 175 104 328 105 340 2 11 8 23 13
27 6 4 -9 8 -32 8 -32 0 -43 4 -43 15 0 19 15 25 61 28 l34 2 0 582 0 582
-1172 1 -1173 0 0 -2500z m2337 2425 c0 -6 -6 -12 -12 -12 -6 0 -12 6 -12 12
0 6 6 12 12 12 6 0 12 -6 12 -12z m0 -80 c0 -6 -6 -12 -12 -12 -6 0 -12 6 -12
12 0 6 6 12 12 12 6 0 12 -6 12 -12z m0 -80 c0 -6 -6 -12 -12 -12 -6 0 -12 6
-12 12 0 6 6 12 12 12 6 0 12 -6 12 -12z m0 -80 c0 -6 -6 -12 -12 -12 -6 0
-12 6 -12 12 0 6 6 12 12 12 6 0 12 -6 12 -12z m0 -80 c0 -6 -6 -12 -12 -12
-6 0 -12 6 -12 12 0 6 6 12 12 12 6 0 12 -6 12 -12z m0 -80 c0 -6 -6 -12 -12
-12 -6 0 -12 6 -12 12 0 6 6 12 12 12 6 0 12 -6 12 -12z m0 -80 c0 -6 -6 -12
-12 -12 -6 0 -12 6 -12 12 0 6 6 12 12 12 6 0 12 -6 12 -12z m0 -80 c0 -6 -6
-12 -12 -12 -6 0 -12 6 -12 12 0 6 6 12 12 12 6 0 12 -6 12 -12z m0 -80 c0 -6
-6 -12 -12 -12 -6 0 -12 6 -12 12 0 6 6 12 12 12 6 0 12 -6 12 -12z m0 -80 c0
-6 -6 -12 -12 -12 -6 0 -12 6 -12 12 0 6 6 12 12 12 6 0 12 -6 12 -12z m0 -80
c0 -6 -6 -12 -12 -12 -6 0 -12 6 -12 12 0 6 6 12 12 12 6 0 12 -6 12 -12z m0
-80 c0 -6 -6 -12 -12 -12 -6 0 -12 6 -12 12 0 6 6 12 12 12 6 0 12 -6 12 -12z
m0 -80 c0 -6 -6 -12 -12 -12 -6 0 -12 6 -12 12 0 6 6 12 12 12 6 0 12 -6 12
-12z m0 -80 c0 -6 -6 -12 -12 -12 -6 0 -12 6 -12 12 0 6 6 12 12 12 6 0 12 -6
12 -12z m-249 -148 c3 -81 1 -88 -15 -85 -15 3 -19 15 -21 71 l-3 67 -89 0
-90 0 0 -350 0 -350 24 0 c35 0 56 -10 56 -26 0 -11 -31 -14 -165 -14 -137 0
-165 2 -165 14 0 9 12 16 33 18 l32 3 3 353 2 352 -85 0 -85 0 0 -54 c0 -63
-7 -86 -25 -86 -7 0 -16 7 -19 16 -11 28 -6 140 6 152 9 9 86 12 308 10 l295
-3 3 -88z m246 -495 c3 -5 -1 -9 -9 -9 -8 0 -12 4 -9 9 3 4 7 8 9 8 2 0 6 -4
9 -8z m3 -77 c0 -6 -6 -12 -12 -12 -6 0 -12 6 -12 12 0 6 6 12 12 12 6 0 12
-6 12 -12z m0 -80 c0 -6 -6 -12 -12 -12 -6 0 -12 6 -12 12 0 6 6 12 12 12 6 0
12 -6 12 -12z m0 -80 c0 -6 -6 -12 -12 -12 -6 0 -12 6 -12 12 0 6 6 12 12 12
6 0 12 -6 12 -12z m0 -80 c0 -6 -6 -12 -12 -12 -6 0 -12 6 -12 12 0 6 6 12 12
12 6 0 12 -6 12 -12z m0 -80 c0 -6 -6 -12 -12 -12 -6 0 -12 6 -12 12 0 6 6 12
12 12 6 0 12 -6 12 -12z m-544 -27 c13 -18 88 -125 166 -237 l141 -204 0 216
0 217 -41 0 c-33 0 -40 3 -37 18 3 14 17 17 97 20 59 2 98 -1 107 -9 21 -17 7
-29 -36 -29 l-39 0 -3 -374 c-2 -206 -7 -378 -11 -382 -4 -5 -16 -3 -25 2 -9
6 -118 158 -242 337 -125 180 -229 330 -233 333 -4 4 -7 -136 -7 -310 l0 -318
43 2 c60 4 67 2 67 -15 0 -13 -17 -15 -117 -13 -79 2 -118 7 -120 15 -3 8 11
13 39 15 l43 3 3 353 2 352 -34 0 c-38 0 -57 17 -35 31 8 5 67 9 131 9 l117 0
24 -32z m544 -53 c0 -6 -6 -12 -12 -12 -6 0 -12 6 -12 12 0 6 6 12 12 12 6 0
12 -6 12 -12z m0 -80 c0 -6 -6 -12 -12 -12 -6 0 -12 6 -12 12 0 6 6 12 12 12
6 0 12 -6 12 -12z m0 -80 c0 -6 -6 -12 -12 -12 -6 0 -12 6 -12 12 0 6 6 12 12
12 6 0 12 -6 12 -12z m0 -80 c0 -6 -6 -12 -12 -12 -6 0 -12 6 -12 12 0 6 6 12
12 12 6 0 12 -6 12 -12z m0 -80 c0 -6 -6 -12 -12 -12 -6 0 -12 6 -12 12 0 6 6
12 12 12 6 0 12 -6 12 -12z m0 -80 c0 -6 -6 -12 -12 -12 -6 0 -12 6 -12 12 0
6 6 12 12 12 6 0 12 -6 12 -12z m0 -320 c0 -6 -6 -12 -12 -12 -6 0 -12 6 -12
12 0 6 6 12 12 12 6 0 12 -6 12 -12z m0 -80 c0 -6 -6 -12 -12 -12 -6 0 -12 6
-12 12 0 6 6 12 12 12 6 0 12 -6 12 -12z m0 -80 c0 -6 -6 -12 -12 -12 -6 0
-12 6 -12 12 0 6 6 12 12 12 6 0 12 -6 12 -12z m-317 -47 c73 -34 120 -110
120 -195 0 -59 -38 -145 -74 -169 l-26 -17 39 -36 c48 -45 61 -88 61 -208 l0
-92 27 -3 c17 -2 29 -10 31 -21 3 -16 -6 -17 -120 -15 l-123 3 -3 168 -2 167
-80 0 -80 0 0 -149 c0 -141 1 -150 20 -156 11 -3 20 -13 20 -21 0 -12 -24 -14
-147 -12 -92 2 -147 7 -146 13 1 6 17 12 35 15 l33 5 3 353 2 352 -35 0 c-34
0 -46 15 -27 34 4 4 104 6 222 4 169 -4 223 -8 250 -20z m-1480 -958 l0 -390
380 0 c373 0 380 0 380 -20 0 -20 -7 -20 -400 -20 l-400 0 0 410 c0 403 0 410
20 410 20 0 20 -7 20 -390z m1797 125 c0 -6 -6 -12 -12 -12 -6 0 -12 6 -12 12
0 6 6 12 12 12 6 0 12 -6 12 -12z m0 -80 c0 -6 -6 -12 -12 -12 -6 0 -12 6 -12
12 0 6 6 12 12 12 6 0 12 -6 12 -12z m0 -80 c0 -6 -6 -12 -12 -12 -6 0 -12 6
-12 12 0 6 6 12 12 12 6 0 12 -6 12 -12z m0 -80 c0 -6 -6 -12 -12 -12 -6 0
-12 6 -12 12 0 6 6 12 12 12 6 0 12 -6 12 -12z m0 -80 c0 -6 -6 -12 -12 -12
-6 0 -12 6 -12 12 0 6 6 12 12 12 6 0 12 -6 12 -12z m0 -80 c0 -6 -6 -12 -12
-12 -6 0 -12 6 -12 12 0 6 6 12 12 12 6 0 12 -6 12 -12z m0 -80 c0 -6 -6 -12
-12 -12 -6 0 -12 6 -12 12 0 6 6 12 12 12 6 0 12 -6 12 -12z m0 -80 c0 -6 -6
-12 -12 -12 -6 0 -12 6 -12 12 0 6 6 12 12 12 6 0 12 -6 12 -12z m0 -80 c0 -6
-6 -12 -12 -12 -6 0 -12 6 -12 12 0 6 6 12 12 12 6 0 12 -6 12 -12z m0 -80 c0
-6 -6 -12 -12 -12 -6 0 -12 6 -12 12 0 6 6 12 12 12 6 0 12 -6 12 -12z m0 -80
c0 -6 -6 -12 -12 -12 -6 0 -12 6 -12 12 0 6 6 12 12 12 6 0 12 -6 12 -12z m0
-80 c0 -6 -6 -12 -12 -12 -6 0 -12 6 -12 12 0 6 6 12 12 12 6 0 12 -6 12 -12z
m0 -80 c0 -6 -6 -12 -12 -12 -6 0 -12 6 -12 12 0 6 6 12 12 12 6 0 12 -6 12
-12z"/>
<path d="M1790 1640 l0 -181 78 3 77 3 3 178 2 177 -80 0 -80 0 0 -180z"/>
<path d="M2339 3675 c-4 -14 -6 -21 -13 -37 -4 -9 -9 -22 -10 -30 -2 -7 -6
-20 -9 -28 -10 -22 -87 -267 -87 -274 0 -4 28 -6 62 -4 l63 3 0 188 c0 163 -1
203 -6 182z m-2 -110 c0 -6 -6 -12 -12 -12 -6 0 -12 6 -12 12 0 6 6 12 12 12
6 0 12 -6 12 -12z m0 -80 c0 -6 -6 -12 -12 -12 -6 0 -12 6 -12 12 0 6 6 12 12
12 6 0 12 -6 12 -12z m0 -80 c0 -6 -6 -12 -12 -12 -6 0 -12 6 -12 12 0 6 6 12
12 12 6 0 12 -6 12 -12z m0 -80 c0 -6 -6 -12 -12 -12 -6 0 -12 6 -12 12 0 6 6
12 12 12 6 0 12 -6 12 -12z"/>
<path d="M2339 2155 c-1 -3 -2 -8 -3 -12 -1 -5 -4 -13 -8 -19 -4 -6 -1 -11 5
-11 7 0 13 11 13 24 0 21 -4 31 -7 18z"/>
</g>
</svg>
